<svg width="213" height="95" viewBox="0 0 213 95" fill="none" xmlns="http://www.w3.org/2000/svg">
<path d="M156.62 61.02C156.41 60.24 156.05 59.96 155.13 59.96H142.38C141.46 59.96 141.1 60.24 140.89 61.02L138.76 67.82C138.26 69.45 137.56 70.16 134.65 70.16C132.95 70.16 131.11 69.81 131.11 68.25C131.11 67.82 131.32 67.4 131.61 66.69C132.25 65.27 134.73 58.83 137.77 50.47C141.1 41.4 143.51 34.6 143.51 33.33C143.51 31.42 140.89 31.42 140.89 30.14C140.89 28.09 144.36 26.31 148.89 26.31C153.42 26.31 156.61 28.29 158.1 33.04L166.67 60.52C168.51 66.26 172.05 64.91 172.05 66.9C172.05 68.89 168.93 70.58 165.46 70.58C160.93 70.58 158.59 68.38 156.61 61.02H156.62ZM153.92 55C154.49 55 154.84 54.72 154.84 54.29C154.84 54.15 154.77 54.08 154.7 53.86L149.81 37.57C149.6 36.72 149.38 36.29 148.96 36.29C148.54 36.29 148.32 36.86 148.11 37.57L142.87 53.86C142.8 54.07 142.73 54.14 142.73 54.29C142.73 54.71 143.08 55 143.65 55H153.92Z" fill="#E1EBED"/>
<path d="M175.95 67.75C175.95 66.9 176.8 56.84 176.8 53.3C176.8 41.54 172.41 43.17 172.41 41.26C172.41 38.92 176.66 37.65 179.14 37.65C184.95 37.65 182.97 45.58 183.96 45.58C185.38 45.58 187.08 25.11 199.05 25.11C202.66 25.11 206.06 27.73 206.06 30.42C206.06 31.77 205.21 32.33 202.8 32.33C202.66 32.33 202.3 32.19 201.81 32.19C190.83 32.19 185.45 47.56 185.45 58.19C185.45 62.44 185.52 66.48 185.52 67.47C185.52 68.53 185.45 70.37 180.77 70.37C177.23 70.37 175.95 69.31 175.95 67.75Z" fill="#E1EBED"/>
<path d="M198.98 61.94C198.98 58.4 199.48 53.79 199.48 50.11C199.48 41.47 196.22 43.31 196.22 41.26C196.22 38.99 200.47 37.79 203.59 37.79C207.42 37.79 208.55 40.13 208.55 44.45C208.55 48.42 207.91 57.13 207.91 60.32C207.91 66.55 212.3 64.5 212.3 66.84C212.3 68.89 209.32 70.67 205.78 70.67C201.74 70.67 198.98 68.12 198.98 61.96V61.94Z" fill="#E1EBED"/>
<path d="M134.469 77.0936V77.838H131.388V77.0936H134.469ZM132.311 82.81V76.3047C132.311 75.9772 132.388 75.7042 132.542 75.4859C132.695 75.2676 132.895 75.1038 133.141 74.9947C133.386 74.8855 133.646 74.8309 133.919 74.8309C134.134 74.8309 134.311 74.8483 134.447 74.883C134.584 74.9177 134.685 74.95 134.752 74.9798L134.499 75.739C134.455 75.7241 134.393 75.7055 134.313 75.6832C134.236 75.6608 134.134 75.6497 134.008 75.6497C133.718 75.6497 133.508 75.7228 133.379 75.8692C133.252 76.0156 133.189 76.2302 133.189 76.5131V82.81H132.311ZM136.579 75.1882V82.81H135.7V75.1882H136.579ZM141.79 80.4728V77.0936H142.668V82.81H141.79V81.8424H141.73C141.596 82.1327 141.388 82.3795 141.105 82.583C140.822 82.7839 140.465 82.8844 140.033 82.8844C139.676 82.8844 139.358 82.8063 139.08 82.65C138.803 82.4912 138.584 82.253 138.425 81.9354C138.267 81.6154 138.187 81.2122 138.187 80.7259V77.0936H139.066V80.6664C139.066 81.0832 139.182 81.4156 139.415 81.6637C139.651 81.9119 139.951 82.0359 140.316 82.0359C140.534 82.0359 140.756 81.9801 140.982 81.8684C141.21 81.7568 141.402 81.5856 141.555 81.3549C141.712 81.1241 141.79 80.8301 141.79 80.4728ZM144.277 82.81V77.0936H145.155V82.81H144.277ZM144.723 76.1409C144.552 76.1409 144.405 76.0826 144.28 75.966C144.159 75.8494 144.098 75.7092 144.098 75.5455C144.098 75.3817 144.159 75.2415 144.28 75.1249C144.405 75.0083 144.552 74.95 144.723 74.95C144.895 74.95 145.041 75.0083 145.162 75.1249C145.287 75.2415 145.349 75.3817 145.349 75.5455C145.349 75.7092 145.287 75.8494 145.162 75.966C145.041 76.0826 144.895 76.1409 144.723 76.1409ZM152.033 82.9291C151.498 82.9291 151.036 82.8026 150.649 82.5495C150.262 82.2964 149.964 81.9478 149.756 81.5037C149.547 81.0596 149.443 80.5522 149.443 79.9816C149.443 79.401 149.55 78.8887 149.763 78.4446C149.979 77.998 150.279 77.6494 150.664 77.3988C151.051 77.1457 151.503 77.0192 152.019 77.0192C152.421 77.0192 152.783 77.0936 153.105 77.2425C153.428 77.3914 153.692 77.5998 153.898 77.8677C154.104 78.1357 154.232 78.4483 154.281 78.8056H153.403C153.336 78.5451 153.187 78.3143 152.956 78.1133C152.728 77.9099 152.421 77.8082 152.033 77.8082C151.691 77.8082 151.391 77.8975 151.133 78.0761C150.877 78.2523 150.678 78.5016 150.534 78.8242C150.392 79.1442 150.322 79.5201 150.322 79.9518C150.322 80.3934 150.391 80.778 150.53 81.1055C150.671 81.433 150.87 81.6873 151.125 81.8684C151.383 82.0496 151.686 82.1401 152.033 82.1401C152.262 82.1401 152.469 82.1004 152.655 82.021C152.841 81.9416 152.999 81.8275 153.128 81.6786C153.257 81.5298 153.348 81.3511 153.403 81.1427H154.281C154.232 81.4801 154.109 81.7841 153.913 82.0545C153.719 82.3225 153.463 82.5358 153.143 82.6946C152.825 82.8509 152.455 82.9291 152.033 82.9291ZM157.888 82.9291C157.371 82.9291 156.919 82.8063 156.529 82.5607C156.142 82.315 155.839 81.9714 155.621 81.5298C155.405 81.0881 155.297 80.5721 155.297 79.9816C155.297 79.3861 155.405 78.8664 155.621 78.4222C155.839 77.9781 156.142 77.6333 156.529 77.3876C156.919 77.142 157.371 77.0192 157.888 77.0192C158.404 77.0192 158.855 77.142 159.242 77.3876C159.632 77.6333 159.934 77.9781 160.15 78.4222C160.369 78.8664 160.478 79.3861 160.478 79.9816C160.478 80.5721 160.369 81.0881 160.15 81.5298C159.934 81.9714 159.632 82.315 159.242 82.5607C158.855 82.8063 158.404 82.9291 157.888 82.9291ZM157.888 82.1401C158.28 82.1401 158.602 82.0396 158.855 81.8387C159.108 81.6377 159.296 81.3735 159.417 81.046C159.539 80.7185 159.599 80.3637 159.599 79.9816C159.599 79.5995 159.539 79.2435 159.417 78.9135C159.296 78.5835 159.108 78.3168 158.855 78.1133C158.602 77.9099 158.28 77.8082 157.888 77.8082C157.496 77.8082 157.173 77.9099 156.92 78.1133C156.667 78.3168 156.48 78.5835 156.358 78.9135C156.236 79.2435 156.176 79.5995 156.176 79.9816C156.176 80.3637 156.236 80.7185 156.358 81.046C156.48 81.3735 156.667 81.6377 156.92 81.8387C157.173 82.0396 157.496 82.1401 157.888 82.1401ZM161.818 82.81V77.0936H162.667V77.9868H162.741C162.861 77.6816 163.053 77.4447 163.318 77.276C163.584 77.1048 163.903 77.0192 164.275 77.0192C164.652 77.0192 164.966 77.1048 165.216 77.276C165.469 77.4447 165.667 77.6816 165.808 77.9868H165.868C166.014 77.6916 166.234 77.4571 166.526 77.2834C166.819 77.1073 167.17 77.0192 167.579 77.0192C168.091 77.0192 168.509 77.1792 168.834 77.4993C169.159 77.8169 169.321 78.3118 169.321 78.9842V82.81H168.443V78.9842C168.443 78.5624 168.328 78.261 168.097 78.0799C167.866 77.8987 167.594 77.8082 167.282 77.8082C166.88 77.8082 166.568 77.9298 166.348 78.1729C166.127 78.4136 166.016 78.7187 166.016 79.0884V82.81H165.123V78.8949C165.123 78.5699 165.018 78.3081 164.807 78.1096C164.596 77.9087 164.324 77.8082 163.992 77.8082C163.764 77.8082 163.55 77.869 163.352 77.9905C163.156 78.1121 162.997 78.2808 162.875 78.4967C162.756 78.71 162.697 78.9569 162.697 79.2373V82.81H161.818ZM173.249 82.9291C172.733 82.9291 172.28 82.8063 171.891 82.5607C171.504 82.315 171.201 81.9714 170.983 81.5298C170.767 81.0881 170.659 80.5721 170.659 79.9816C170.659 79.3861 170.767 78.8664 170.983 78.4222C171.201 77.9781 171.504 77.6333 171.891 77.3876C172.28 77.142 172.733 77.0192 173.249 77.0192C173.765 77.0192 174.217 77.142 174.604 77.3876C174.994 77.6333 175.296 77.9781 175.512 78.4222C175.73 78.8664 175.84 79.3861 175.84 79.9816C175.84 80.5721 175.73 81.0881 175.512 81.5298C175.296 81.9714 174.994 82.315 174.604 82.5607C174.217 82.8063 173.765 82.9291 173.249 82.9291ZM173.249 82.1401C173.641 82.1401 173.964 82.0396 174.217 81.8387C174.47 81.6377 174.657 81.3735 174.779 81.046C174.9 80.7185 174.961 80.3637 174.961 79.9816C174.961 79.5995 174.9 79.2435 174.779 78.9135C174.657 78.5835 174.47 78.3168 174.217 78.1133C173.964 77.9099 173.641 77.8082 173.249 77.8082C172.857 77.8082 172.535 77.9099 172.282 78.1133C172.029 78.3168 171.841 78.5835 171.72 78.9135C171.598 79.2435 171.537 79.5995 171.537 79.9816C171.537 80.3637 171.598 80.7185 171.72 81.046C171.841 81.3735 172.029 81.6377 172.282 81.8387C172.535 82.0396 172.857 82.1401 173.249 82.1401ZM183.73 80.4728V77.0936H184.609V82.81H183.73V81.8424H183.671C183.537 82.1327 183.328 82.3795 183.045 82.583C182.763 82.7839 182.405 82.8844 181.974 82.8844C181.616 82.8844 181.299 82.8063 181.021 82.65C180.743 82.4912 180.525 82.253 180.366 81.9354C180.207 81.6154 180.128 81.2122 180.128 80.7259V77.0936H181.006V80.6664C181.006 81.0832 181.123 81.4156 181.356 81.6637C181.592 81.9119 181.892 82.0359 182.257 82.0359C182.475 82.0359 182.697 81.9801 182.923 81.8684C183.151 81.7568 183.342 81.5856 183.496 81.3549C183.652 81.1241 183.73 80.8301 183.73 80.4728ZM186.217 82.81V77.0936H187.066V77.9868H187.14C187.259 77.6816 187.452 77.4447 187.717 77.276C187.982 77.1048 188.301 77.0192 188.673 77.0192C189.051 77.0192 189.364 77.1048 189.615 77.276C189.868 77.4447 190.065 77.6816 190.207 77.9868H190.266C190.413 77.6916 190.632 77.4571 190.925 77.2834C191.218 77.1073 191.569 77.0192 191.978 77.0192C192.489 77.0192 192.907 77.1792 193.232 77.4993C193.557 77.8169 193.72 78.3118 193.72 78.9842V82.81H192.842V78.9842C192.842 78.5624 192.726 78.261 192.496 78.0799C192.265 77.8987 191.993 77.8082 191.681 77.8082C191.279 77.8082 190.967 77.9298 190.746 78.1729C190.526 78.4136 190.415 78.7187 190.415 79.0884V82.81H189.522V78.8949C189.522 78.5699 189.417 78.3081 189.206 78.1096C188.995 77.9087 188.723 77.8082 188.391 77.8082C188.162 77.8082 187.949 77.869 187.751 77.9905C187.555 78.1121 187.396 78.2808 187.274 78.4967C187.155 78.71 187.096 78.9569 187.096 79.2373V82.81H186.217ZM198.273 82.81V77.0936H199.122V77.957H199.181C199.286 77.6742 199.474 77.4447 199.747 77.2685C200.02 77.0924 200.328 77.0043 200.67 77.0043C200.735 77.0043 200.815 77.0056 200.912 77.008C201.009 77.0105 201.082 77.0142 201.131 77.0192V77.9124C201.102 77.9049 201.033 77.8938 200.927 77.8789C200.823 77.8615 200.712 77.8528 200.596 77.8528C200.318 77.8528 200.07 77.9111 199.851 78.0278C199.635 78.1419 199.464 78.3007 199.338 78.5041C199.214 78.7051 199.152 78.9346 199.152 79.1926V82.81H198.273ZM202.173 82.81V77.0936H203.051V82.81H202.173ZM202.619 76.1409C202.448 76.1409 202.3 76.0826 202.176 75.966C202.055 75.8494 201.994 75.7092 201.994 75.5455C201.994 75.3817 202.055 75.2415 202.176 75.1249C202.3 75.0083 202.448 74.95 202.619 74.95C202.79 74.95 202.937 75.0083 203.058 75.1249C203.182 75.2415 203.244 75.3817 203.244 75.5455C203.244 75.7092 203.182 75.8494 203.058 75.966C202.937 76.0826 202.79 76.1409 202.619 76.1409ZM206.982 82.9291C206.466 82.9291 206.013 82.8063 205.623 82.5607C205.236 82.315 204.934 81.9714 204.715 81.5298C204.5 81.0881 204.392 80.5721 204.392 79.9816C204.392 79.3861 204.5 78.8664 204.715 78.4222C204.934 77.9781 205.236 77.6333 205.623 77.3876C206.013 77.142 206.466 77.0192 206.982 77.0192C207.498 77.0192 207.949 77.142 208.336 77.3876C208.726 77.6333 209.029 77.9781 209.245 78.4222C209.463 78.8664 209.572 79.3861 209.572 79.9816C209.572 80.5721 209.463 81.0881 209.245 81.5298C209.029 81.9714 208.726 82.315 208.336 82.5607C207.949 82.8063 207.498 82.9291 206.982 82.9291ZM206.982 82.1401C207.374 82.1401 207.696 82.0396 207.949 81.8387C208.203 81.6377 208.39 81.3735 208.511 81.046C208.633 80.7185 208.694 80.3637 208.694 79.9816C208.694 79.5995 208.633 79.2435 208.511 78.9135C208.39 78.5835 208.203 78.3168 207.949 78.1133C207.696 77.9099 207.374 77.8082 206.982 77.8082C206.59 77.8082 206.267 77.9099 206.014 78.1133C205.761 78.3168 205.574 78.5835 205.452 78.9135C205.331 79.2435 205.27 79.5995 205.27 79.9816C205.27 80.3637 205.331 80.7185 205.452 81.046C205.574 81.3735 205.761 81.6377 206.014 81.8387C206.267 82.0396 206.59 82.1401 206.982 82.1401Z" fill="#E1EBED"/>
<g opacity="0.5" filter="url(#filter0_f_10_8)">
<path d="M119.79 53.65L73.19 7.05C67.79 1.65 59.05 1.65 53.65 7.05L7.05 53.65C1.65 59.05 1.65 67.79 7.05 73.19L23.8 89.94C24.98 91.12 26.7 91.57 28.31 91.13L28.59 91.05H28.56L53.78 84.05C54.46 84.79 55.55 85.81 57.09 86.69C58.03 87.23 60.53 88.62 64.05 88.51C65.11 88.48 68.03 88.26 70.9 86.28C71.94 85.56 72.69 84.8 73.18 84.24L98.4 91.26C100.01 91.71 101.73 91.26 102.91 90.07L119.8 73.18C125.2 67.78 125.2 59.04 119.8 53.64L119.79 53.65Z" fill="black"/>
</g>
<path d="M119.79 53.65L73.19 7.05C67.79 1.65 59.05 1.65 53.65 7.05L7.05 53.65C1.65 59.05 1.65 67.79 7.05 73.19L23.8 89.94C24.98 91.12 26.7 91.57 28.31 91.13L28.59 91.05H28.56L53.78 84.05C54.46 84.79 55.55 85.81 57.09 86.69C58.03 87.23 60.53 88.62 64.05 88.51C65.11 88.48 68.03 88.26 70.9 86.28C71.94 85.56 72.69 84.8 73.18 84.24L98.4 91.26C100.01 91.71 101.73 91.26 102.91 90.07L119.8 73.18C125.2 67.78 125.2 59.04 119.8 53.64L119.79 53.65Z" fill="#F29727"/>
<path d="M96.12 86.09C95.68 86.09 95.25 86.03 94.83 85.91L73.04 79.87C70.55 82.61 67.04 84.25 63.42 84.25C59.8 84.25 56.29 82.62 53.8 79.87L32.01 85.91C31.59 86.03 31.15 86.09 30.72 86.09C28.55 86.09 26.64 84.63 26.06 82.55L25.45 80.34C25.1 79.09 25.27 77.79 25.9 76.66C26.54 75.54 27.57 74.72 28.82 74.38L32.93 73.24C32.93 73.24 32.9 73.18 32.89 73.16C32.26 71.92 31.62 70.67 31.06 69.6C29.12 65.62 28.48 61.9 29.12 58.48C29.2 58.07 29.3 57.64 29.4 57.19C29.8 55.49 30.01 54.38 29.53 53.38L29.5 53.34C29.38 53.17 29.19 52.92 28.87 52.42C26.79 49.24 24.82 46.23 25.31 42.57C25.46 41.45 25.99 39.29 27.82 37.52C28.68 36.68 30.19 35.61 32.46 35.24C32.94 35.16 33.44 35.12 33.95 35.12C34.86 35.12 35.77 35.25 36.59 35.44C38.41 33.37 41.55 31.04 42.61 30.28C44.11 29.2 45.34 28.58 46.63 27.92C48.61 26.92 50.66 26.09 52.72 25.46C56.08 24.44 58.93 24.08 60.72 23.96C60.76 23.96 61.84 23.89 62.97 23.89H63.4H63.76C64.97 23.89 66.05 23.96 66.09 23.96C67.88 24.08 70.72 24.43 74.09 25.46C76.15 26.09 78.2 26.91 80.18 27.92C81.47 28.58 82.7 29.2 84.2 30.28C85.27 31.05 88.42 33.39 90.23 35.44C91.05 35.25 91.96 35.12 92.86 35.12C93.37 35.12 93.88 35.16 94.36 35.24C96.63 35.61 98.14 36.68 99 37.52C100.83 39.29 101.36 41.44 101.51 42.57C102 46.24 100.04 49.24 97.95 52.42C97.63 52.91 97.44 53.17 97.32 53.34L97.3 53.37C96.82 54.38 97.03 55.49 97.43 57.18C97.54 57.63 97.64 58.06 97.71 58.47C98.13 60.74 98.4 64.37 95.79 69.55L95.74 69.66L93.64 73.16L98.02 74.37C99.27 74.72 100.3 75.53 100.94 76.65C101.58 77.77 101.74 79.08 101.39 80.33L100.78 82.54C100.2 84.63 98.28 86.09 96.12 86.09Z" fill="#E1EBED"/>
<path d="M89.2899 74.18C90.4999 72.16 91.7199 70.13 92.9299 68.11C95.0699 63.85 94.9199 60.98 94.5699 59.06C94.2099 57.11 93.1699 54.52 94.4399 51.94C94.6499 51.52 94.6699 51.6 95.2799 50.66C97.2099 47.72 98.6699 45.48 98.3399 43C98.2699 42.48 97.9899 41.01 96.7799 39.83C95.6399 38.72 94.2799 38.48 93.8599 38.41C91.9499 38.1 89.9399 38.83 89.5499 39.08C89.5299 39.09 89.4699 39.14 89.3699 39.15C88.9299 39.21 88.4999 38.46 88.3899 38.28C87.3999 36.66 83.3499 33.61 82.3499 32.89C81.0499 31.95 79.9999 31.42 78.7499 30.79C76.2999 29.55 74.2299 28.86 73.1799 28.54C69.6299 27.46 66.7999 27.23 65.9099 27.17C65.9099 27.17 64.8699 27.1 63.7999 27.1C63.6799 27.1 63.5599 27.1 63.4299 27.1C63.2999 27.1 63.1799 27.1 63.0599 27.1C61.9899 27.1 60.9499 27.17 60.9499 27.17C60.0499 27.23 57.2299 27.45 53.6799 28.54C52.6299 28.86 50.5599 29.54 48.1099 30.79C46.8599 31.42 45.8099 31.95 44.5099 32.89C43.5099 33.61 39.4599 36.66 38.4699 38.28C38.3599 38.46 37.9299 39.21 37.4899 39.15C37.3999 39.14 37.3399 39.1 37.3099 39.08C36.9099 38.83 34.9099 38.1 32.9999 38.41C32.5699 38.48 31.2199 38.72 30.0799 39.83C28.8599 41.01 28.5899 42.48 28.5199 43C28.1899 45.48 29.6499 47.72 31.5799 50.66C32.1999 51.6 32.2199 51.52 32.4199 51.94C33.6899 54.52 32.6499 57.11 32.2899 59.06C31.9199 61.06 31.9399 64.04 33.9299 68.11C35.0599 70.28 36.1799 72.45 37.3099 74.62L63.4399 68.42L88.6299 75.42L89.3099 74.19L89.2899 74.18Z" fill="#644F51" stroke="#644F51" stroke-width="2.27" stroke-miterlimit="10"/>
<path d="M97.1599 77.4701L64.8899 68.5201L63.8999 72.0801C64.2299 70.8901 64.5599 69.7001 64.8899 68.5201C64.5299 68.4201 64.0199 68.3101 63.4099 68.3101C62.7999 68.3101 62.2799 68.4201 61.9299 68.5201L29.6599 77.4701C28.7899 77.7101 28.2899 78.6101 28.5299 79.4701L29.1399 81.6801C29.3799 82.5501 30.2799 83.0501 31.1399 82.8101L63.4099 73.8601L95.6799 82.8101C96.5499 83.0501 97.4399 82.5401 97.6799 81.6801L98.2899 79.4701C98.5299 78.6001 98.0199 77.7101 97.1599 77.4701Z" fill="#644F51"/>
<path d="M64.8899 68.5201L97.1599 77.4701C98.0199 77.7101 98.5299 78.6001 98.2899 79.4701L97.6799 81.6801C97.4399 82.5401 96.5499 83.0501 95.6799 82.8101L63.4099 73.8601L31.1399 82.8101C30.2799 83.0501 29.3799 82.5501 29.1399 81.6801L28.5299 79.4701C28.2899 78.6101 28.7899 77.7101 29.6599 77.4701L61.9299 68.5201C62.2799 68.4201 62.7999 68.3101 63.4099 68.3101C64.0199 68.3101 64.5299 68.4201 64.8899 68.5201ZM64.8899 68.5201L63.8999 72.0801C64.2299 70.8901 64.5599 69.7001 64.8899 68.5201Z" stroke="#644F51" stroke-width="2.27" stroke-miterlimit="10"/>
<path d="M63.4199 80.01C59.8099 80.01 56.3799 77.52 55.0799 73.96L53.9299 70.8L59.5999 69.11C60.8399 68.74 62.1299 68.55 63.4199 68.55C64.7099 68.55 65.9899 68.74 67.2399 69.11L72.9199 70.8L71.7699 73.96C70.4699 77.52 67.0399 80.01 63.4299 80.01H63.4199Z" fill="#E1EBED"/>
<path d="M63.4199 70.4801C64.5199 70.4801 65.6199 70.6401 66.6899 70.9601L70.3999 72.0701L69.9499 73.3101C68.9199 76.1301 66.2399 78.09 63.4199 78.09C60.5999 78.09 57.9199 76.1201 56.8899 73.3101L56.4399 72.0701L60.1499 70.9601C61.2199 70.6401 62.3199 70.4801 63.4199 70.4801ZM63.4199 66.6201C61.9399 66.6201 60.4799 66.8301 59.0599 67.2601L55.3399 68.3701L51.4199 69.5401L52.8199 73.3801L53.2699 74.6201C54.8399 78.9301 59.0099 81.9401 63.4199 81.9401C67.8299 81.9401 71.9999 78.9301 73.5699 74.6201L74.0199 73.3801L75.4199 69.5401L71.4999 68.3701L67.7899 67.2601C66.3699 66.8401 64.8999 66.6201 63.4199 66.6201Z" fill="#644F51"/>
<path d="M61 53.46C60 53.63 58.89 53.99 58.3 54.33C56.63 55.32 55.6499 57.46 56.1999 58.91C56.5699 59.9 57.27 60.35 58.69 60.52C59.13 60.57 59.44 60.67 59.44 60.76C59.44 60.85 59.6099 61.27 59.8199 61.71C60.4799 63.13 61.96 64.15 63.33 64.15C64.29 64.15 65.74 63.52 66.39 62.82C66.68 62.5 67.4799 60.97 67.4799 60.74C67.4799 60.67 67.82 60.57 68.24 60.52C69.45 60.37 70.31 59.82 70.63 58.98C70.71 58.77 70.78 58.27 70.78 57.85C70.78 55.94 68.96 54.16 66.38 53.55C65.51 53.34 62.09 53.3 61 53.48V53.46Z" fill="#E1EBED"/>
<path d="M51.53 52.57C51.53 50.9739 50.2361 49.68 48.64 49.68C47.0439 49.68 45.75 50.9739 45.75 52.57V53.64C45.75 55.2361 47.0439 56.53 48.64 56.53C50.2361 56.53 51.53 55.2361 51.53 53.64V52.57Z" fill="#E1EBED"/>
<path d="M81.0799 52.57C81.0799 50.9739 79.786 49.68 78.1899 49.68C76.5938 49.68 75.2999 50.9739 75.2999 52.57V53.64C75.2999 55.2361 76.5938 56.53 78.1899 56.53C79.786 56.53 81.0799 55.2361 81.0799 53.64V52.57Z" fill="#E1EBED"/>
<path d="M21.0599 65.1C34.1399 55.33 51.7799 57.53 63.8999 67.78C64.5999 68.32 63.8999 69.46 63.0999 69.07C50.6099 63.06 36.0099 65.69 26.0999 75.18C30.4099 70.13 36.9799 66.65 43.6199 65.32C50.3499 63.99 57.4499 64.94 63.7299 67.68L62.9299 68.97C54.1899 62.2 42.5199 59.17 31.6599 61.44C28.0299 62.18 24.5099 63.52 21.1599 65.26C21.0599 65.32 20.9499 65.16 21.0499 65.09L21.0599 65.1Z" fill="#E1EBED"/>
<path d="M105.67 65.27C92.35 57.96 75.8 59.7 63.89 68.97L63.09 67.68C75.67 61.92 91.38 64.79 100.73 75.03C100.81 75.12 100.68 75.26 100.59 75.17C91.1 65.55 75.78 63.17 63.73 69.06C62.94 69.45 62.22 68.31 62.93 67.77C71.8 60.34 84.22 56.63 95.51 60.03C99.19 61.11 102.7 62.8 105.77 65.08C105.86 65.15 105.77 65.31 105.66 65.25L105.67 65.27Z" fill="#E1EBED"/>
<defs>
<filter id="filter0_f_10_8" x="0" y="0" width="126.85" height="94.4313" filterUnits="userSpaceOnUse" color-interpolation-filters="sRGB">
<feFlood flood-opacity="0" result="BackgroundImageFix"/>
<feBlend mode="normal" in="SourceGraphic" in2="BackgroundImageFix" result="shape"/>
<feGaussianBlur stdDeviation="1.5" result="effect1_foregroundBlur_10_8"/>
</filter>
</defs>
</svg>
