<svg width="62" height="62" viewBox="0 0 62 62" fill="none" xmlns="http://www.w3.org/2000/svg">
<path d="M30.7001 61.4C47.6552 61.4 61.4 47.6551 61.4 30.7C61.4 13.7449 47.6552 0 30.7001 0C13.7449 0 0 13.7449 0 30.7C0 47.6551 13.7449 61.4 30.7001 61.4Z" fill="#192823"/>
<path d="M33.4301 32.41H27.9701C19.1801 32.41 12.0601 39.54 12.0601 48.32V55.08C17.2301 59.04 23.6901 61.4 30.7001 61.4C37.7101 61.4 44.1801 59.04 49.3401 55.08V48.32C49.3401 39.53 42.2201 32.41 33.4301 32.41Z" fill="#E1EBED"/>
<path d="M30.7001 29.45C36.8028 29.45 41.75 24.5027 41.75 18.4C41.75 12.2972 36.8028 7.34998 30.7001 7.34998C24.5973 7.34998 19.65 12.2972 19.65 18.4C19.65 24.5027 24.5973 29.45 30.7001 29.45Z" fill="#E1EBED"/>
</svg>
